<svg version="1.1" xmlns="http://www.w3.org/2000/svg" fill="#0A3241" width="305" height="139">
  <path d="M0 0 C0.79277344 0.009104 1.58554688 0.01820801 2.40234375 0.02758789 C13.21595077 0.4498566 20.03479367 5.92472498 27.66796875 13.18359375 C29.62432566 15.03340172 31.59581033 16.77489787 33.64453125 18.515625 C39.63443782 23.73196107 45.20300348 29.39198328 50.81640625 35.00610352 C52.76804832 36.95552781 54.7275967 38.89677624 56.6875 40.83789062 C57.92757071 42.07503249 59.16717177 43.31264535 60.40625 44.55078125 C60.99361938 45.13096512 61.58098877 45.71114899 62.18615723 46.30891418 C66.25 50.39613745 66.25 50.39613745 66.25 52.625 C66.889375 52.893125 67.52875 53.16125 68.1875 53.4375 C70.25 54.625 70.25 54.625 71.25 57.625 C71.8275 57.893125 72.405 58.16125 73 58.4375 C76.23257602 60.14358179 77.9556628 62.81443694 80.25 65.625 C81.57901064 66.63073778 82.91073801 67.63295408 84.25 68.625 C84.25 69.285 84.25 69.945 84.25 70.625 C84.82234375 70.8725 85.3946875 71.12 85.984375 71.375 C88.60010611 72.81816199 90.39773456 74.50716222 92.5 76.625 C93.20640625 77.32625 93.9128125 78.0275 94.640625 78.75 C96.25 80.625 96.25 80.625 96.25 82.625 C96.806875 82.83125 97.36375 83.0375 97.9375 83.25 C100.47812201 84.76064012 102.01507497 86.56358175 103.80859375 88.89453125 C105.8084173 91.29540342 108.0263625 93.42896628 110.25 95.625 C111.49849135 96.88302832 112.74579509 98.14223588 113.9921875 99.40234375 C115.36973939 100.78911443 116.74734472 102.17583203 118.125 103.5625 C118.80691406 104.25279297 119.48882812 104.94308594 120.19140625 105.65429688 C123.92270387 109.40336258 127.7311321 112.94684031 131.78027344 116.34887695 C133.51487178 117.85498086 134.98696725 119.47035477 136.4375 121.25 C141.35657867 127.04507898 146.84265974 132.29150809 152.25 137.625 C152.91 138.285 153.57 138.945 154.25 139.625 C143.12345829 139.74085605 131.9970601 139.82969636 120.87003803 139.88406086 C115.70326239 139.91015341 110.53689944 139.94554551 105.37036133 140.00219727 C100.38421257 140.05652881 95.39846073 140.08642311 90.4120388 140.09938622 C88.50979552 140.10862402 86.60757393 140.12666353 84.70549965 140.15365028 C82.04057523 140.18995626 79.37729019 140.19494478 76.7121582 140.19262695 C75.92597107 140.21060333 75.13978394 140.22857971 74.32977295 140.24710083 C70.25415821 140.20875261 68.49806959 139.83121832 65.31948853 137.18888855 C64.29509171 135.91976372 64.29509171 135.91976372 63.25 134.625 C62.73058838 134.10035156 62.21117676 133.57570312 61.67602539 133.03515625 C61.23766357 132.59042969 60.79930176 132.14570313 60.34765625 131.6875 C59.33596108 130.6666433 58.32424209 129.6458102 57.3125 128.625 C56.56323242 127.86316406 56.56323242 127.86316406 55.79882812 127.0859375 C53.31333441 124.58440834 50.8025261 122.20820173 48.0703125 119.9765625 C45.77871428 118.06583933 43.94265531 116.28844641 42.0625 114 C36.40516971 107.37678405 30.21982325 100.9919485 23.5 95.4375 C20.3080776 92.7927643 17.69709037 89.80097112 15.015625 86.6484375 C12.2515972 83.48081273 9.25427525 80.56234833 6.25 77.625 C5.24885255 76.62614876 4.24849511 75.62650263 3.25 74.625 C-0.20201639 76.10221422 -2.39961936 78.06294001 -5 80.75 C-5.70640625 81.47445312 -6.4128125 82.19890625 -7.140625 82.9453125 C-7.67171875 83.49960938 -8.2028125 84.05390625 -8.75 84.625 C-3.96491326 90.4329456 1.24976069 95.74456135 6.58858871 101.03875351 C8.14572871 102.58299223 9.69960198 104.13045435 11.25271606 105.67874146 C14.54065425 108.9553372 17.8325503 112.22793847 21.125 115.5 C24.96283461 119.31423425 28.79903049 123.13008785 32.63107681 126.95013809 C34.16469794 128.47726144 35.70128833 130.00135429 37.23800659 131.52536011 C38.15961578 132.44366608 39.08122498 133.36197205 40.03076172 134.30810547 C40.84761444 135.11972137 41.66446716 135.93133728 42.506073 136.76754761 C44.25 138.625 44.25 138.625 44.25 139.625 C34.4532481 139.95123783 24.65781324 140.19904404 14.85671043 140.35037041 C10.30387216 140.42305388 5.75478209 140.52137833 1.20410156 140.68115234 C-32.34366493 141.82959857 -32.34366493 141.82959857 -40.29672241 134.60305786 C-42.77597348 131.7741413 -44.74589581 128.80664572 -46.75 125.625 C-48.235 125.13 -48.235 125.13 -49.75 124.625 C-49.75 125.285 -49.75 125.945 -49.75 126.625 C-51.2890625 128.140625 -51.2890625 128.140625 -53.375 129.875 C-56.34616946 132.32661393 -56.34616946 132.32661393 -58.98913002 135.11344337 C-61.64856949 138.21136498 -63.5784603 139.99253567 -67.73641968 140.3465271 C-69.26613638 140.36376672 -70.7964506 140.3483047 -72.32568359 140.30615234 C-73.58520844 140.30746658 -73.58520844 140.30746658 -74.87017822 140.30880737 C-77.63056248 140.30464528 -80.38848077 140.25806135 -83.1484375 140.2109375 C-85.06798983 140.19974039 -86.98755937 140.19120264 -88.90713501 140.18521118 C-93.94801564 140.16235335 -98.98785125 140.10345634 -104.02832031 140.0369873 C-109.1762885 139.97549904 -114.32442632 139.94818219 -119.47265625 139.91796875 C-129.56556213 139.85371018 -139.65769401 139.75136754 -149.75 139.625 C-144.07818644 132.70709119 -137.74525105 126.46458069 -131.42993164 120.14379883 C-130.17914611 118.88837839 -128.92855624 117.63276298 -127.67814636 116.37696838 C-124.29636754 112.98213532 -120.91131657 109.59058428 -117.52523351 106.20004487 C-115.40771063 104.07958224 -113.29077235 101.95853765 -111.17400932 99.83731651 C-104.54428883 93.19394452 -97.91258577 86.55256121 -91.27797133 79.91407663 C-83.6304467 72.26206556 -75.98951591 64.60354974 -68.35422617 56.93933088 C-62.44172525 51.00520946 -56.52346825 45.0768692 -50.60081571 39.15287989 C-47.06751222 35.61852939 -43.53667061 32.08180102 -40.01179695 28.53904152 C-36.69823592 25.20899176 -33.37757582 21.88618822 -30.05137825 18.56876183 C-28.83420278 17.35235607 -27.61957487 16.13339479 -26.40774155 14.91166687 C-24.74897017 13.24015161 -23.08112926 11.57822534 -21.41078186 9.91828918 C-20.48111131 8.98715207 -19.55144075 8.05601496 -18.59359837 7.09666157 C-12.75329305 2.02025614 -7.69419306 -0.11223429 0 0 Z M-22.31860352 31.8371582 C-23.34391273 32.86167491 -24.36987675 33.88553665 -25.3964386 34.90879822 C-28.15885435 37.66611963 -30.91192288 40.432599 -33.66317105 43.20105767 C-36.54880837 46.10181224 -39.44263028 48.99438059 -42.33543396 51.88798523 C-47.18284811 56.73907983 -52.0246097 61.59575569 -56.86254883 66.45629883 C-63.08000967 72.70274911 -69.30681358 78.93979936 -75.53656101 85.17399311 C-80.89325463 90.53465804 -86.24568109 95.89957769 -91.59741473 101.2651937 C-93.31942772 102.99130992 -95.04203052 104.71683589 -96.76471138 106.44228554 C-99.46191416 109.14436543 -102.15644991 111.84907742 -104.8488903 114.55590248 C-105.83975177 115.55130109 -106.83147023 116.5458474 -107.82408142 117.53950119 C-109.17248658 118.88964148 -110.51750817 120.24315852 -111.86231995 121.59687805 C-112.61756234 122.35509511 -113.37280474 123.11331217 -114.15093327 123.8945055 C-115.86311111 125.35470961 -115.86311111 125.35470961 -115.75 126.625 C-109.47004829 126.82850013 -103.19095133 126.96820641 -96.90844727 127.06445312 C-94.77335847 127.1045882 -92.63848824 127.15911159 -90.50415039 127.22851562 C-87.42799948 127.3260119 -84.35476214 127.37102453 -81.27734375 127.40625 C-80.32915268 127.44754028 -79.38096161 127.48883057 -78.40403748 127.53137207 C-74.37806534 127.53407384 -71.79531102 127.48907817 -68.61894226 124.86341858 C-66.86196085 122.85506859 -65.30247463 120.7926583 -63.75 118.625 C-62.43091664 117.39864658 -61.08489696 116.19881217 -59.6875 115.0625 C-55.92800722 111.88195445 -52.86222462 108.43747516 -49.75 104.625 C-46.87588535 104.96165815 -45.88510063 105.4740073 -43.92358398 107.66625977 C-43.28751221 108.54080811 -42.65144043 109.41535645 -41.99609375 110.31640625 C-33.12366551 121.7983283 -33.12366551 121.7983283 -20.33789062 127.61523438 C-10.19285515 128.72183284 0.14699664 127.7941903 10.25 126.625 C5.89609184 121.40369517 1.30144654 116.58182866 -3.5546875 111.828125 C-5.03934346 110.36096134 -6.52371028 108.89350504 -8.0078125 107.42578125 C-10.32884449 105.13587421 -12.65213382 102.84840053 -14.98046875 100.56591797 C-17.24104502 98.34746718 -19.49223908 96.1198466 -21.7421875 93.890625 C-22.44519989 93.20623352 -23.14821228 92.52184204 -23.87252808 91.81671143 C-24.83450607 90.85991486 -24.83450607 90.85991486 -25.81591797 89.88378906 C-26.38406219 89.32532288 -26.95220642 88.76685669 -27.53756714 88.19146729 C-28.75 86.625 -28.75 86.625 -28.75 83.625 C-27.21875 82.08984375 -27.21875 82.08984375 -25.25 80.5625 C-23.31520028 79.09556541 -23.31520028 79.09556541 -21.75 77.625 C-21.75 76.965 -21.75 76.305 -21.75 75.625 C-20.76 75.295 -19.77 74.965 -18.75 74.625 C-18.75 73.965 -18.75 73.305 -18.75 72.625 C-17.84701172 72.23054688 -17.84701172 72.23054688 -16.92578125 71.828125 C-14.6310142 70.55920534 -13.53861649 69.42369084 -11.9375 67.375 C-9.31372816 64.17039318 -6.49222017 61.57146482 -3.265625 58.984375 C-1.49087049 57.5061002 -1.49087049 57.5061002 0.25 54.625 C5.52265872 54.93935926 8.22205852 58.05027874 11.72094727 61.62597656 C12.66337784 62.56512154 12.66337784 62.56512154 13.62484741 63.52323914 C15.69846112 65.59454227 17.75743406 67.67977502 19.81640625 69.765625 C21.25619074 71.21033428 22.69679006 72.65423191 24.13816833 74.09735107 C27.15768685 77.12451125 30.17062649 80.15801376 33.1784668 83.19677734 C37.02901033 87.08684229 40.89019763 90.96610941 44.75569248 94.84131241 C48.44612799 98.54173979 52.13160478 102.24708859 55.81640625 105.953125 C56.51790865 106.65802315 57.21941105 107.3629213 57.9421711 108.08917999 C59.93363981 110.09226968 61.92160656 112.0987663 63.90844727 114.10644531 C64.49400894 114.69469589 65.07957062 115.28294647 65.68287659 115.88902283 C68.10605365 118.34400252 70.36531522 120.76943472 72.52134705 123.46990967 C74.07134379 125.70978952 74.07134379 125.70978952 76.25 126.625 C77.63909304 126.71418777 79.03236907 126.74259541 80.42431641 126.73852539 C81.28505768 126.73844986 82.14579895 126.73837433 83.03262329 126.73829651 C83.96287323 126.73313522 84.89312317 126.72797394 85.8515625 126.72265625 C86.80316254 126.7212413 87.75476257 126.71982635 88.73519897 126.71836853 C91.78183097 126.71276012 94.82839013 126.70020619 97.875 126.6875 C99.93749894 126.68248608 101.99999903 126.67792299 104.0625 126.67382812 C109.12502817 126.66278796 114.18750173 126.64551767 119.25 126.625 C115.40273138 122.02346875 111.41734025 117.65315148 107.15625 113.43359375 C106.57979736 112.85860138 106.00334473 112.28360901 105.40942383 111.69119263 C104.16982189 110.45536694 102.92906717 109.22069666 101.68725586 107.98709106 C99.7168179 106.02953483 97.74962418 104.06876854 95.78320312 102.10717773 C91.60827954 97.94362561 87.42943731 93.78402052 83.25 89.625 C78.40300273 84.80168059 73.55766799 79.97671517 68.71655273 75.14749146 C66.78770012 73.22507434 64.85583793 71.30571796 62.92382812 69.38647461 C61.73031934 68.19660167 60.5369526 67.00658623 59.34375 65.81640625 C58.81370361 65.29152618 58.28365723 64.76664612 57.73754883 64.2258606 C54.5413551 61.03011355 51.56714493 57.71820123 48.69006348 54.23155212 C46.6551353 51.96136179 44.34012592 50.10913878 41.98828125 48.1796875 C39.54352878 45.99314485 37.54139017 43.51437605 35.51171875 40.9453125 C35.09535156 40.50960937 34.67898437 40.07390625 34.25 39.625 C33.59 39.625 32.93 39.625 32.25 39.625 C32.25 38.965 32.25 38.305 32.25 37.625 C30.63200498 35.98824492 30.63200498 35.98824492 28.5625 34.3125 C25.30189298 31.54298265 22.27586363 28.65086363 19.25 25.625 C13.74771002 20.45583405 9.14373876 16.19948605 1.4375 15.0625 C-8.24258469 15.51153889 -15.9936859 25.44837036 -22.31860352 31.8371582 Z " transform="translate(149.75,-0.625)"/>
  <path d="M0 0 C4.46402906 0.4155843 6.90601071 3.52613674 9.859375 6.56640625 C10.40861633 7.11989243 10.95785767 7.6733786 11.52374268 8.24363708 C13.27300464 10.00966559 15.01153644 11.78584692 16.75 13.5625 C17.935505 14.76305441 19.12169524 15.9629326 20.30859375 17.16210938 C23.21373293 20.10029095 26.10929337 23.04762074 29 26 C28.34 26.66 27.68 27.32 27 28 C25.68 27.34 24.36 26.68 23 26 C22.01 27.65 21.02 29.3 20 31 C20.66 31.33 21.32 31.66 22 32 C21.125 36.75 21.125 36.75 20 39 C15.05 34.05 10.1 29.1 5 24 C9 23 9 23 12 24 C12.66 24.99 13.32 25.98 14 27 C14.66 26.67 15.32 26.34 16 26 C16.99 26.33 17.98 26.66 19 27 C18.04134491 24.66924071 18.04134491 24.66924071 15 23 C15.66 22.67 16.32 22.34 17 22 C17.99 22.33 18.98 22.66 20 23 C17.07040523 17.29787809 17.07040523 17.29787809 12 14 C10.5 12 10.5 12 9 10 C8.01 9.67 7.02 9.34 6 9 C4.39453125 6.93359375 4.39453125 6.93359375 2.8125 4.4375 C2.28269531 3.61121094 1.75289062 2.78492187 1.20703125 1.93359375 C0.80871094 1.29550781 0.41039062 0.65742187 0 0 Z " transform="translate(139,86)"/>
  <path d="M0 0 C0 3.50590723 -0.96524035 5.11980723 -3.26724243 7.7253418 C-6.76063165 10.29516305 -10.87288855 9.76693153 -15.04296875 9.65625 C-16.00777664 9.65250366 -16.97258453 9.64875732 -17.96662903 9.64489746 C-19.99994797 9.63148212 -22.03321641 9.60370292 -24.06616211 9.5625 C-27.18717085 9.50000659 -30.30616108 9.48053972 -33.42773438 9.46875 C-35.40367061 9.45041621 -37.37958622 9.42966664 -39.35546875 9.40625 C-40.2919072 9.39775024 -41.22834564 9.38925049 -42.19316101 9.38049316 C-43.05778458 9.36127808 -43.92240814 9.34206299 -44.81323242 9.32226562 C-45.95643196 9.30178162 -45.95643196 9.30178162 -47.12272644 9.28088379 C-49 9 -49 9 -51 7 C-50.44956024 7.00079559 -49.89912048 7.00159119 -49.33200073 7.00241089 C-43.58860476 7.00485385 -37.84655618 6.96556988 -32.10351562 6.90234375 C-29.96197778 6.8842061 -27.82032309 6.87661118 -25.67871094 6.87988281 C-22.5947875 6.88274625 -19.51327628 6.84736487 -16.4296875 6.8046875 C-14.99965897 6.8183284 -14.99965897 6.8183284 -13.54074097 6.83224487 C-8.7123423 6.72732312 -5.86060166 6.43959663 -2.34814453 2.94970703 C-1.18581299 1.48960205 -1.18581299 1.48960205 0 0 Z " transform="translate(85,119)"/>
  <path d="M0 0 C5.92650126 -0.04939701 11.85288297 -0.08571817 17.77954102 -0.10986328 C19.79616381 -0.11992773 21.81277199 -0.13358047 23.8293457 -0.15087891 C26.72611089 -0.17510769 29.62268331 -0.18647859 32.51953125 -0.1953125 C33.42274612 -0.20563507 34.325961 -0.21595764 35.25654602 -0.22659302 C36.09719101 -0.22674408 36.937836 -0.22689514 37.80395508 -0.22705078 C38.54341873 -0.231492 39.28288239 -0.23593323 40.04475403 -0.24050903 C42 0 42 0 45 2 C44.01 2.99 43.02 3.98 42 5 C41.505 4.01 41.505 4.01 41 3 C20.705 2.505 20.705 2.505 0 2 C0 1.34 0 0.68 0 0 Z " transform="translate(226,126)"/>
  <path d="M0 0 C3.52191627 0.26088269 4.21275268 1.24314592 6.625 4 C7.40875 4.99 8.1925 5.98 9 7 C9.66 7.33 10.32 7.66 11 8 C11 8.66 11 9.32 11 10 C11.61875 10.268125 12.2375 10.53625 12.875 10.8125 C15 12 15 12 17 15 C17.99 15.66 18.98 16.32 20 17 C20.78375 17.99 21.5675 18.98 22.375 20 C25.03017271 23.0344831 26.38126707 23.6307497 30 25 C31.375 26.9375 31.375 26.9375 32 29 C31.67 29.99 31.34 30.98 31 32 C26.58165052 27.60691362 22.16715378 23.20998376 17.75537109 18.81030273 C16.25268527 17.31265948 14.74910507 15.81591309 13.24462891 14.32006836 C11.08783449 12.17534291 8.93423049 10.0274594 6.78125 7.87890625 C6.10316284 7.20598038 5.42507568 6.5330545 4.72644043 5.83973694 C3.79547546 4.90888527 3.79547546 4.90888527 2.84570312 3.95922852 C2.29499146 3.41073746 1.74427979 2.8622464 1.17687988 2.2971344 C0 1 0 1 0 0 Z " transform="translate(235,91)"/>
  <path d="M0 0 C0.99 0.33 1.98 0.66 3 1 C-7.23 11.23 -17.46 21.46 -28 32 C-28.33 31.01 -28.66 30.02 -29 29 C-27.88121617 27.82737096 -26.75476949 26.66204862 -25.625 25.5 C-24.99851562 24.8503125 -24.37203125 24.200625 -23.7265625 23.53125 C-22 22 -22 22 -20 22 C-19.7525 21.4225 -19.505 20.845 -19.25 20.25 C-17.81700012 17.67060021 -16.21575324 15.93878408 -14 14 C-13.34 14 -12.68 14 -12 14 C-11.690625 13.38125 -11.38125 12.7625 -11.0625 12.125 C-10.375 10.75 -9.6875 9.375 -9 8 C-8.01 8 -7.02 8 -6 8 C-5.7525 7.4225 -5.505 6.845 -5.25 6.25 C-3.83316683 3.6997003 -2.12372463 1.98214299 0 0 Z " transform="translate(65,91)"/>
  <path d="M0 0 C6.55377097 5.38640924 12.47246635 11.35885127 18.4375 17.375 C19.46525983 18.40778595 20.49325285 19.44033991 21.52148438 20.47265625 C24.01701598 22.97910287 26.50938082 25.4886708 29 28 C27.68 28.33 26.36 28.66 25 29 C25 28.34 25 27.68 25 27 C24.34 27 23.68 27 23 27 C21.76940764 25.56985212 20.5450342 24.13325519 19.37109375 22.65625 C17.84762924 20.75681212 17.84762924 20.75681212 15.25 18.3125 C13 16 13 16 12 13 C11.21625 12.690625 10.4325 12.38125 9.625 12.0625 C6.62531658 10.84834242 5.63207298 9.7487545 4 7 C4 6.34 4 5.68 4 5 C3.01 4.67 2.02 4.34 1 4 C0.3125 1.9375 0.3125 1.9375 0 0 Z " transform="translate(183,83)"/>
  <path d="M0 0 C4.46402906 0.4155843 6.90601071 3.52613674 9.859375 6.56640625 C10.40861633 7.11989243 10.95785767 7.6733786 11.52374268 8.24363708 C13.27300464 10.00966559 15.01153644 11.78584692 16.75 13.5625 C17.935505 14.76305441 19.12169524 15.9629326 20.30859375 17.16210938 C23.21373293 20.10029095 26.10929337 23.04762074 29 26 C28.34 26.66 27.68 27.32 27 28 C26.29875 27.113125 25.5975 26.22625 24.875 25.3125 C22.98866214 23.03272596 21.04968235 21.11085407 18.75 19.25 C16 17 16 17 15 15 C14.01 14.67 13.02 14.34 12 14 C10.5 12 10.5 12 9 10 C8.01 9.67 7.02 9.34 6 9 C4.39453125 6.93359375 4.39453125 6.93359375 2.8125 4.4375 C2.28269531 3.61121094 1.75289062 2.78492187 1.20703125 1.93359375 C0.80871094 1.29550781 0.41039062 0.65742187 0 0 Z " transform="translate(139,86)"/>
  <path d="M0 0 C0.99 0.495 0.99 0.495 2 1 C4.62380313 1.15660883 7.22524852 1.2582908 9.8515625 1.31640625 C10.62559418 1.33718735 11.39962585 1.35796844 12.19711304 1.37937927 C14.67298392 1.44483448 17.14896202 1.50374087 19.625 1.5625 C21.30209448 1.60568907 22.97917807 1.64930348 24.65625 1.69335938 C28.77072308 1.80051171 32.88530414 1.90179045 37 2 C37.495 2.99 37.495 2.99 38 4 C29.50555531 4.92109594 21.27646528 5.00039993 12.75 4.5625 C11.61175781 4.51029297 10.47351563 4.45808594 9.30078125 4.40429688 C6.53345234 4.27639512 3.7666589 4.14154253 1 4 C0.67 2.68 0.34 1.36 0 0 Z " transform="translate(123,124)"/>
  <path d="M0 0 C1.32 0 2.64 0 4 0 C8 4.22222222 8 4.22222222 8 7 C8.66 7 9.32 7 10 7 C12.77419875 9.54926371 15.22142891 12.24671008 17.5625 15.1875 C19.72122523 17.67833681 20.97388196 18.87921554 24 20 C24 20.99 24 21.98 24 23 C24.66 23 25.32 23 26 23 C25.67 23.99 25.34 24.98 25 26 C24.41992188 25.40832031 23.83984375 24.81664062 23.2421875 24.20703125 C18.25744186 19.1045561 18.25744186 19.1045561 12.875 14.4375 C7.90933725 10.22748158 3.85482866 5.22905761 0 0 Z " transform="translate(185,105)"/>
  <path d="M0 0 C0.99 0.33 1.98 0.66 3 1 C-4.59 8.59 -12.18 16.18 -20 24 C-20.33 23.01 -20.66 22.02 -21 21 C-17.62399551 15.84431264 -12.78336828 11.80495204 -8 8 C-7.4225 7.401875 -6.845 6.80375 -6.25 6.1875 C-5 5 -5 5 -3 5 C-2.690625 4.360625 -2.38125 3.72125 -2.0625 3.0625 C-1 1 -1 1 0 0 Z " transform="translate(112,44)"/>
  <path d="M0 0 C0.309375 0.639375 0.61875 1.27875 0.9375 1.9375 C1.8345163 3.93610821 1.8345163 3.93610821 3 5 C3.33 4.34 3.66 3.68 4 3 C5.32 3.33 6.64 3.66 8 4 C8 4.99 8 5.98 8 7 C8.99 7.33 9.98 7.66 11 8 C11.33 10.64 11.66 13.28 12 16 C9.63931849 14.03043732 7.31201072 12.02646358 5 10 C4.39414063 9.4740625 3.78828125 8.948125 3.1640625 8.40625 C1.5 6.875 1.5 6.875 -1 4 C-0.65625 1.8203125 -0.65625 1.8203125 0 0 Z M6 7 C6.33 7.99 6.66 8.98 7 10 C7.33 9.01 7.66 8.02 8 7 C7.34 7 6.68 7 6 7 Z " transform="translate(121,82)"/>
  <path d="M0 0 C0.33 1.32 0.66 2.64 1 4 C0.401875 4.268125 -0.19625 4.53625 -0.8125 4.8125 C-3.09167008 6.04976376 -4.40074253 6.9645814 -6 9 C-6.268125 10.010625 -6.53625 11.02125 -6.8125 12.0625 C-7.204375 13.031875 -7.59625 14.00125 -8 15 C-10.8125 16.0625 -10.8125 16.0625 -14 17 C-16.83459483 19.49958655 -16.83459483 19.49958655 -19 22 C-19.66 21.67 -20.32 21.34 -21 21 C-14.07 14.07 -7.14 7.14 0 0 Z " transform="translate(110,28)"/>
  <path d="M0 0 C1.485 0.99 1.485 0.99 3 2 C3 2.66 3 3.32 3 4 C3.66 4.33 4.32 4.66 5 5 C5.66 5.66 6.32 6.32 7 7 C7 6.01 7 5.02 7 4 C8.32 4.33 9.64 4.66 11 5 C10.67 7.64 10.34 10.28 10 13 C5.86378916 9.6189962 2.18683431 6.33409466 -1 2 C-0.67 1.34 -0.34 0.68 0 0 Z " transform="translate(134,96)"/>
  <path d="M0 0 C5.38493928 0.30970894 7.82467404 3.35430107 11.3125 7.0625 C12.13717773 7.91424805 12.13717773 7.91424805 12.97851562 8.78320312 C14.32827365 10.17990925 15.66541525 11.58878837 17 13 C16.34 13.66 15.68 14.32 15 15 C11.37308404 12.12699353 8.39623447 9.61765961 5.875 5.6875 C4.24524049 2.77113584 4.24524049 2.77113584 1.25 2.125 C0.5075 2.08375 -0.235 2.0425 -1 2 C-0.67 1.34 -0.34 0.68 0 0 Z " transform="translate(150,53)"/>
  <path d="M0 0 C0 3.92823101 -1.51754449 5.06618894 -4 8 C-4.33 8.66 -4.66 9.32 -5 10 C-4.34 10.33 -3.68 10.66 -3 11 C-6.00617269 14.00617269 -8.82381598 13.59585316 -13 14 C-8.88380164 9.08064098 -4.59589638 4.47352044 0 0 Z " transform="translate(54,84)"/>
  <path d="M0 0 C0.99 0.33 1.98 0.66 3 1 C-1.62 5.62 -6.24 10.24 -11 15 C-11.33 14.01 -11.66 13.02 -12 12 C-11.360625 11.401875 -10.72125 10.80375 -10.0625 10.1875 C-7.79689611 8.09189663 -7.79689611 8.09189663 -7 5 C-5.36368108 3.95107762 -3.69514137 2.95093297 -2 2 C-1.34 1.34 -0.68 0.68 0 0 Z " transform="translate(80,76)"/>
  <path d="M0 0 C5.66129431 4.69766975 10.85228904 9.74723372 16 15 C15.01 15.33 14.02 15.66 13 16 C12 15 11 14 10 13 C9.13375 12.175 8.2675 11.35 7.375 10.5 C5 8 5 8 4 5 C1.98491642 4.26676204 1.98491642 4.26676204 0 4 C0 2.68 0 1.36 0 0 Z " transform="translate(167,67)"/>
  <path d="M0 0 C0 3.44360632 -0.79591532 4.74795392 -2.5 7.6875 C-2.9640625 8.49574219 -3.428125 9.30398437 -3.90625 10.13671875 C-4.2671875 10.75160156 -4.628125 11.36648437 -5 12 C-6.32 11.67 -7.64 11.34 -9 11 C-9.33 11.99 -9.66 12.98 -10 14 C-10.99 13.67 -11.98 13.34 -13 13 C-8.71 8.71 -4.42 4.42 0 0 Z " transform="translate(68,70)"/>
  <path d="M0 0 C4.79833434 3.87557774 9.42907477 7.92483886 13 13 C13 13.66 13 14.32 13 15 C9.59585597 13.86528532 8.75723352 12.82774013 6.5 10.125 C4.01458892 7.15907484 4.01458892 7.15907484 1.28125 4.4296875 C0 3 0 3 0 0 Z " transform="translate(212,112)"/>
  <path d="M0 0 C4.31730413 0.47409648 6.33647461 3.03396703 9.25 6.0625 C10.14203125 6.98160156 11.0340625 7.90070313 11.953125 8.84765625 C12.62859375 9.55792969 13.3040625 10.26820313 14 11 C9.91404725 11 7.96756406 9.96166428 5.078125 7.08984375 C4.47484375 6.37957031 3.8715625 5.66929688 3.25 4.9375 C2.63640625 4.22464844 2.0228125 3.51179688 1.390625 2.77734375 C0 1 0 1 0 0 Z " transform="translate(280,118)"/>
  <path d="M0 0 C0 3.69349436 -0.88153908 5.00493457 -3 8 C-7.43243243 12 -7.43243243 12 -10 12 C-8.23186986 6.37413137 -4.83239156 3.22159437 0 0 Z " transform="translate(98,106)"/>
  <path d="M0 0 C3.98175544 2.10148204 6.35039045 4.36905358 9 8 C6.1875 8.25 6.1875 8.25 3 8 C1.125 6.25 1.125 6.25 0 4 C0 2.68 0 1.36 0 0 Z " transform="translate(171,8)"/>
  <path d="M0 0 C2.38564077 0.57584432 4.66682784 1.22227595 7 2 C7.68132451 3.66072849 8.34742127 5.327767 9 7 C9.99 7.66 10.98 8.32 12 9 C11.67 9.99 11.34 10.98 11 12 C9.16364422 10.19047409 7.33083792 8.37759362 5.5 6.5625 C4.97535156 6.04623047 4.45070312 5.52996094 3.91015625 4.99804688 C2.58775448 3.68423213 1.29164432 2.34406495 0 1 C0 0.67 0 0.34 0 0 Z " transform="translate(207,63)"/>
  <path d="M0 0 C0.99 0 1.98 0 3 0 C1.69425831 2.91280837 0.2925792 4.80294493 -2 7 C-2.99 8.485 -2.99 8.485 -4 10 C-4 9.34 -4 8.68 -4 8 C-4.66 8 -5.32 8 -6 8 C-5.67 6.68 -5.34 5.36 -5 4 C-4.0409375 3.8453125 -4.0409375 3.8453125 -3.0625 3.6875 C-2.381875 3.460625 -1.70125 3.23375 -1 3 C-0.67 2.01 -0.34 1.02 0 0 Z " transform="translate(123,17)"/>
  <path d="M0 0 C2.64 1.98 5.28 3.96 8 6 C6.68 6.33 5.36 6.66 4 7 C3.67 6.34 3.34 5.68 3 5 C0.67843403 4.59270772 -1.6568787 4.25561323 -4 4 C-3.67 3.01 -3.34 2.02 -3 1 C-2.34 1 -1.68 1 -1 1 C-0.67 0.67 -0.34 0.34 0 0 Z " transform="translate(296,132)"/>
  <path d="M0 0 C0.309375 0.639375 0.61875 1.27875 0.9375 1.9375 C1.8345163 3.93610821 1.8345163 3.93610821 3 5 C3.33 4.34 3.66 3.68 4 3 C5.32 3.33 6.64 3.66 8 4 C8 4.99 8 5.98 8 7 C7.01 7 6.02 7 5 7 C4.67 7.66 4.34 8.32 4 9 C1.4375 6.75 1.4375 6.75 -1 4 C-0.8125 1.6875 -0.8125 1.6875 0 0 Z " transform="translate(121,82)"/>
  <path d="M0 0 C4.95 0 9.9 0 15 0 C15.66 1.32 16.32 2.64 17 4 C15.7625 3.505 15.7625 3.505 14.5 3 C9.34686174 1.52767478 4.17461539 1.2751282 -1 3 C-0.67 2.01 -0.34 1.02 0 0 Z " transform="translate(144,14)"/>
  <path d="M0 0 C0 4.29525524 -2.23382207 5.83865379 -5 9 C-5.99 10.485 -5.99 10.485 -7 12 C-8.32 11.67 -9.64 11.34 -11 11 C-7.37 7.37 -3.74 3.74 0 0 Z " transform="translate(80,58)"/>
  <path d="M0 0 C0.99 0.33 1.98 0.66 3 1 C0.69 3.31 -1.62 5.62 -4 8 C-4.33 7.01 -4.66 6.02 -5 5 C-5.66 5 -6.32 5 -7 5 C-7 4.34 -7 3.68 -7 3 C-6.21625 2.87625 -5.4325 2.7525 -4.625 2.625 C-1.85942178 2.20882007 -1.85942178 2.20882007 0 0 Z " transform="translate(88,68)"/>
  <path d="M0 0 C0.99 0.66 1.98 1.32 3 2 C2.125 6.75 2.125 6.75 1 9 C-0.98 6.69 -2.96 4.38 -5 2 C-2.525 2.495 -2.525 2.495 0 3 C0 2.01 0 1.02 0 0 Z " transform="translate(158,116)"/>
  <path d="M0 0 C2 1.375 2 1.375 4 3 C4 3.66 4 4.32 4 5 C5.32 5.66 6.64 6.32 8 7 C7.67 7.66 7.34 8.32 7 9 C6.01 8.67 5.02 8.34 4 8 C4 7.34 4 6.68 4 6 C2.68 5.67 1.36 5.34 0 5 C0 3.35 0 1.7 0 0 Z " transform="translate(212,47)"/>
  <path d="M0 0 C1.14926266 0.95421808 2.29430541 1.91352045 3.4375 2.875 C4.07558594 3.40867187 4.71367187 3.94234375 5.37109375 4.4921875 C7 6 7 6 8 8 C6.02 8 4.04 8 2 8 C0.74335022 5.09399739 0 3.20395416 0 0 Z " transform="translate(189,24)"/>
  <path d="M0 0 C7.48291572 6.15034169 7.48291572 6.15034169 10 10 C6 10 6 10 4.296875 8.3203125 C3.78640625 7.59585938 3.2759375 6.87140625 2.75 6.125 C2.22921875 5.40570313 1.7084375 4.68640625 1.171875 3.9453125 C0 2 0 2 0 0 Z " transform="translate(177,122)"/>
  <path d="M0 0 C2.38564077 0.57584432 4.66682784 1.22227595 7 2 C7.33 3.98 7.66 5.96 8 8 C6.85073734 7.04578192 5.70569459 6.08647955 4.5625 5.125 C3.92441406 4.59132813 3.28632813 4.05765625 2.62890625 3.5078125 C1 2 1 2 0 0 Z " transform="translate(219,75)"/>
  <path d="M0 0 C1.15224028 0.92961422 2.29659176 1.8690125 3.4375 2.8125 C4.07558594 3.33457031 4.71367187 3.85664062 5.37109375 4.39453125 C7 6 7 6 8 9 C5.525 8.01 5.525 8.01 3 7 C3 6.34 3 5.68 3 5 C2.01 4.67 1.02 4.34 0 4 C0 2.68 0 1.36 0 0 Z " transform="translate(247,82)"/>
  <path d="M0 0 C0.99 0.33 1.98 0.66 3 1 C0.03 3.64 -2.94 6.28 -6 9 C-6.33 8.01 -6.66 7.02 -7 6 C-5.90716423 4.96704564 -4.80029421 3.94892165 -3.6875 2.9375 C-3.07261719 2.36902344 -2.45773438 1.80054687 -1.82421875 1.21484375 C-0.92123047 0.61349609 -0.92123047 0.61349609 0 0 Z " transform="translate(140,17)"/>
  <path d="M0 0 C1.875 0.25 1.875 0.25 4 1 C5.3125 2.875 5.3125 2.875 6 5 C5.67 5.99 5.34 6.98 5 8 C2.5 5.6875 2.5 5.6875 0 3 C0 2.01 0 1.02 0 0 Z " transform="translate(261,115)"/>
  <path d="M0 0 C1.12894876 0.93274109 2.25300876 1.87140122 3.375 2.8125 C4.00148437 3.33457031 4.62796875 3.85664062 5.2734375 4.39453125 C7 6 7 6 9 9 C4.74822077 8.52758009 2.70030797 6.15035929 0 3 C0 2.01 0 1.02 0 0 Z " transform="translate(168,113)"/>
  <path d="M0 0 C0 3.58912412 -0.66436554 4.10857029 -3 6.6875 C-3.556875 7.31011719 -4.11375 7.93273437 -4.6875 8.57421875 C-5.120625 9.04472656 -5.55375 9.51523438 -6 10 C-6.99 9.67 -7.98 9.34 -9 9 C-6.03 6.03 -3.06 3.06 0 0 Z " transform="translate(32,106)"/>
  <path d="M0 0 C1.875 0.25 1.875 0.25 4 1 C5.125 2.8125 5.125 2.8125 6 5 C6.37125 5.7425 6.7425 6.485 7.125 7.25 C7.41375 7.8275 7.7025 8.405 8 9 C4.25366514 7.75122171 2.58958203 5.93952555 0 3 C0 2.01 0 1.02 0 0 Z " transform="translate(189,43)"/>
  <path d="M0 0 C0.99 0.33 1.98 0.66 3 1 C0.69 3.31 -1.62 5.62 -4 8 C-4.33 6.68 -4.66 5.36 -5 4 C-2.6875 1.9375 -2.6875 1.9375 0 0 Z " transform="translate(120,36)"/>
  <path d="M0 0 C1.9375 0.625 1.9375 0.625 4 2 C4.75 5.125 4.75 5.125 5 8 C4.34 7.67 3.68 7.34 3 7 C3 6.34 3 5.68 3 5 C1.68 4.34 0.36 3.68 -1 3 C-0.67 2.01 -0.34 1.02 0 0 Z " transform="translate(174,27)"/>
  <path d="M0 0 C3.7952131 1.49097658 5.61042731 3.75700849 8 7 C4.84859577 6.65930765 3.39218439 6.41923159 1.1875 4.0625 C0 2 0 2 0 0 Z " transform="translate(181,17)"/>
  <path d="M0 0 C3.39609044 1.19322096 5.62433927 2.28495916 8 5 C8.66 5.66 9.32 6.32 10 7 C9.34 7.66 8.68 8.32 8 9 C6.66368764 7.6905332 5.33102075 6.37734515 4 5.0625 C3.2575 4.33160156 2.515 3.60070312 1.75 2.84765625 C0 1 0 1 0 0 Z " transform="translate(109,130)"/>
  <path d="M0 0 C1.98 0.66 3.96 1.32 6 2 C6 2.99 6 3.98 6 5 C6.66 5 7.32 5 8 5 C7.67 5.99 7.34 6.98 7 8 C5.83035398 6.8572081 4.66435444 5.71068285 3.5 4.5625 C2.8503125 3.92441406 2.200625 3.28632812 1.53125 2.62890625 C0 1 0 1 0 0 Z " transform="translate(203,123)"/>
  <path d="M0 0 C3.79588866 0.54226981 5.47211993 2.20127563 8 5 C7.67 5.99 7.34 6.98 7 8 C5.83035398 6.8572081 4.66435444 5.71068285 3.5 4.5625 C2.8503125 3.92441406 2.200625 3.28632812 1.53125 2.62890625 C0 1 0 1 0 0 Z " transform="translate(227,83)"/>
  <path d="M0 0 C1.12894876 0.93274109 2.25300876 1.87140122 3.375 2.8125 C4.00148437 3.33457031 4.62796875 3.85664062 5.2734375 4.39453125 C7 6 7 6 9 9 C6.5625 8.1875 6.5625 8.1875 4 7 C3.67 6.01 3.34 5.02 3 4 C2.01 3.67 1.02 3.34 0 3 C0 2.01 0 1.02 0 0 Z " transform="translate(197,32)"/>
  <path d="M0 0 C1.14926266 0.95421808 2.29430541 1.91352045 3.4375 2.875 C4.07558594 3.40867187 4.71367187 3.94234375 5.37109375 4.4921875 C7 6 7 6 8 8 C6.125 7.75 6.125 7.75 4 7 C2.75 4.9375 2.75 4.9375 2 3 C1.34 3 0.68 3 0 3 C0 2.01 0 1.02 0 0 Z " transform="translate(259,95)"/>
  <path d="M0 0 C3.04492309 1.01497436 4.0298639 1.5821057 6 4 C6.6875 6.1875 6.6875 6.1875 7 8 C3.6223242 6.87410807 2.28636808 5.68056948 0 3 C0 2.01 0 1.02 0 0 Z " transform="translate(226,62)"/>
  <path d="M0 0 C3 0 3 0 4.38671875 1.3125 C5.59114583 2.875 6.79557292 4.4375 8 6 C6.35 5.67 4.7 5.34 3 5 C3 4.34 3 3.68 3 3 C2.01 3 1.02 3 0 3 C0 2.01 0 1.02 0 0 Z " transform="translate(275,112)"/>
  <path d="M0 0 C2.31 1.98 4.62 3.96 7 6 C5.68 6.33 4.36 6.66 3 7 C0 2.25 0 2.25 0 0 Z " transform="translate(187,132)"/>
  <path d="M0 0 C1.14926266 0.95421808 2.29430541 1.91352045 3.4375 2.875 C4.07558594 3.40867187 4.71367188 3.94234375 5.37109375 4.4921875 C7 6 7 6 8 8 C5.04987143 6.63029745 2.4347778 5.17390875 0 3 C0 2.01 0 1.02 0 0 Z " transform="translate(109,110)"/>
  <path d="M0 0 C1.65 0 3.3 0 5 0 C5 0.99 5 1.98 5 3 C4.38125 3.144375 3.7625 3.28875 3.125 3.4375 C0.96741678 3.93152225 0.96741678 3.93152225 -1 5 C-0.67 3.35 -0.34 1.7 0 0 Z " transform="translate(149,71)"/>
  <path d="M0 0 C0.66 0.33 1.32 0.66 2 1 C-0.38957269 4.24299151 -2.2047869 6.50902342 -6 8 C-4.768606 4.30581799 -2.79208646 2.64890254 0 0 Z " transform="translate(146,57)"/>
</svg>
